<!-- icon666.com - MILLIONS vector ICONS FREE --><svg viewBox="0 0 512 512" xmlns="http://www.w3.org/2000/svg"><path d="m512 256c0 141.386719-114.613281 256-256 256s-256-114.613281-256-256 114.613281-256 256-256 256 114.613281 256 256zm0 0" fill="#95239b"></path><path d="m510.308594 285.40625-182.453125-182.453125c-15.863281-18.007813-39.089844-29.367187-64.972657-29.367187-30.667968 0-57.601562 15.957031-72.980468 40.015624l-31.300782-31.34375c-9.207031-10.394531-24.9375-12.96875-37.078124-5.371093-13.515626 8.453125-17.660157 26.429687-9.203126 39.949219l31.371094 50.152343c-12.359375 14.96875-19.785156 34.160157-19.785156 55.085938 0 1.199219.03125 2.390625.078125 3.574219h-22.9375v30l34.042969 30.980468 25.851562 151.019532 73.429688 73.433593c7.132812.597657 14.34375.917969 21.628906.917969 131.4375 0 239.722656-99.0625 254.308594-226.59375zm0 0" fill="#6b1472"></path><path d="m209.601562 217.691406c-13.519531 8.453125-31.496093 4.3125-39.953124-9.203125l-57.328126-91.652343c-8.457031-13.515626-4.3125-31.496094 9.203126-39.949219 13.515624-8.457031 31.496093-4.316407 39.949218 9.203125l57.332032 91.648437c8.453124 13.519531 4.3125 31.496094-9.203126 39.953125zm0 0" fill="#ffdca8"></path><path d="m349.457031 160.160156c0 47.8125-38.761719 86.570313-86.574219 86.570313s-86.570312-38.757813-86.570312-86.570313 38.757812-86.574218 86.570312-86.574218 86.574219 38.761718 86.574219 86.574218zm0 0" fill="#ff74b3"></path><path d="m349.460938 160.160156c0 26.160156-11.609376 49.621094-29.960938 65.488282-7.199219 6.230468-15.441406 11.300781-24.429688 14.890624-9.949218 4-20.808593 6.191407-32.191406 6.191407v-173.140625c47.820313 0 86.582032 38.761718 86.582032 86.570312zm0 0" fill="#ff52a5"></path><path d="m401.863281 222.078125c0 47.8125-38.761719 86.570313-86.574219 86.570313s-86.574218-38.757813-86.574218-86.570313 38.761718-86.574219 86.574218-86.574219 86.574219 38.761719 86.574219 86.574219zm0 0" fill="#ff9b00"></path><path d="m297.050781 222.078125c0 47.8125-38.757812 86.570313-86.570312 86.570313s-86.574219-38.757813-86.574219-86.570313 38.761719-86.574219 86.574219-86.574219 86.570312 38.761719 86.570312 86.574219zm0 0" fill="#87daf7"></path><path d="m297.050781 222.078125c0 1.203125-.019531 2.390625-.082031 3.570313-.199219 5.089843-.847656 10.070312-1.898438 14.890624-.851562 3.921876-1.960937 7.742188-3.320312 11.441407-.460938 1.238281-.941406 2.460937-1.449219 3.667969-5.921875 14.0625-15.441406 26.230468-27.421875 35.332031v-137.808594c20.769532 15.796875 34.171875 40.789063 34.171875 68.90625zm0 0" fill="#4ac9f3"></path><path d="m129.15625 251.984375 31.785156 185.664063h203.886719l31.78125-185.664063zm0 0" fill="#fff"></path><path d="m396.609375 251.980469-.628906 3.667969-31.152344 182h-101.949219v-185.667969zm0 0" fill="#fff5ca"></path><path d="m101.050781 225.648438h323.667969v30h-323.667969zm0 0" fill="#ffe767"></path><path d="m262.878906 225.648438h161.839844v30h-161.839844zm0 0" fill="#ffd000"></path></svg>