<?xml version="1.0" ?><svg xmlns="http://www.w3.org/2000/svg" viewBox="0 0 32 32"><g id="_139_settings-01" data-name="139 settings-01"><path d="M17.13,29H14.87a2,2,0,0,1-2-1.72l-.4-2.8-2.27,1.7A2,2,0,0,1,7.61,26L6,24.39a2,2,0,0,1-.19-2.61l1.7-2.27-2.8-.4a2,2,0,0,1-1.72-2V14.87a2,2,0,0,1,1.72-2l2.8-.4-1.7-2.26A2,2,0,0,1,6,7.61L7.61,6a2,2,0,0,1,2.61-.19l2.27,1.7.4-2.8a2,2,0,0,1,2-1.72h2.26a2,2,0,0,1,2,1.72l.4,2.8,2.27-1.7A2,2,0,0,1,24.39,6L26,7.61a2,2,0,0,1,.19,2.61l-1.7,2.27,2.8.4a2,2,0,0,1,1.72,2v2.26a2,2,0,0,1-1.72,2l-2.8.4,1.7,2.27A2,2,0,0,1,26,24.39L24.39,26a2,2,0,0,1-2.61.19l-2.27-1.7-.4,2.8A2,2,0,0,1,17.13,29Zm-4.6-6.8a.91.91,0,0,1,.43.1,6.59,6.59,0,0,0,.73.3,1,1,0,0,1,.67.8l.51,3.6h2.26l.52-3.6a1,1,0,0,1,.66-.8c.25-.09.49-.19.73-.3a1,1,0,0,1,1,.1L23,24.58l1.6-1.6L22.4,20.07a1,1,0,0,1-.1-1c.11-.24.21-.48.3-.74a1,1,0,0,1,.81-.65L27,17.13V14.87l-3.6-.52a1,1,0,0,1-.8-.66c-.09-.25-.19-.49-.3-.73a1,1,0,0,1,.1-1L24.58,9,23,7.42,20.07,9.6a1,1,0,0,1-1,.1c-.24-.11-.48-.21-.73-.3a1,1,0,0,1-.66-.8L17.13,5H14.87l-.52,3.6a1,1,0,0,1-.66.8c-.25.09-.49.19-.73.3a1,1,0,0,1-1-.1L9,7.42,7.42,9,9.6,11.93a1,1,0,0,1,.1,1,5.74,5.74,0,0,0-.3.72,1,1,0,0,1-.81.66L5,14.87v2.27l3.6.51a1,1,0,0,1,.8.66c.09.25.19.49.3.73a1,1,0,0,1-.1,1L7.42,23,9,24.58l2.91-2.18A1,1,0,0,1,12.53,22.2ZM27,14.87h0Z"/><path d="M16,20a4,4,0,1,1,4-4A4,4,0,0,1,16,20Zm0-6a2,2,0,1,0,2,2A2,2,0,0,0,16,14Z"/></g></svg>