<?xml version="1.0" ?><svg xmlns="http://www.w3.org/2000/svg" viewBox="0 0 32 32"><g id="_144_share-02" data-name="144 share-02"><path d="M24,28a4,4,0,1,1,4-4A4,4,0,0,1,24,28Zm0-6a2,2,0,1,0,2,2A2,2,0,0,0,24,22Z"/><path d="M8,20a4,4,0,1,1,4-4A4,4,0,0,1,8,20Zm0-6a2,2,0,1,0,2,2A2,2,0,0,0,8,14Z"/><path d="M24,12a4,4,0,1,1,4-4A4,4,0,0,1,24,12Zm0-6a2,2,0,1,0,2,2A2,2,0,0,0,24,6Z"/><rect x="15" y="13.29" width="2" height="13.42" transform="translate(-9.04 25.37) rotate(-63.43)"/><rect x="9.29" y="11" width="13.42" height="2" transform="translate(-3.68 8.42) rotate(-26.57)"/></g></svg>